<svg width="21" height="21" viewBox="0 0 21 21" fill="none" xmlns="http://www.w3.org/2000/svg">
<g clip-path="url(#clip0_3063_9353)">
<path d="M10.5008 19.9965C10.8683 19.988 11.2209 19.8499 11.4964 19.6065C11.7718 19.3631 11.9522 19.0301 12.0058 18.6665H8.9375C8.99261 19.04 9.18152 19.3808 9.46909 19.6255C9.75666 19.8701 10.1233 20.002 10.5008 19.9965Z" fill="white"/>
<path d="M18.9643 16.2339C18.4018 15.7324 17.9093 15.1576 17.5001 14.5247C17.0534 13.6512 16.7857 12.6973 16.7126 11.7189V8.83724C16.7103 8.48721 16.679 8.13797 16.6193 7.79307C16.1602 7.70129 15.7189 7.53582 15.3126 7.30307C15.4675 7.80173 15.5462 8.32092 15.546 8.84307V11.7247C15.6175 12.9183 15.9458 14.0823 16.5085 15.1372C16.9112 15.7754 17.3891 16.3629 17.9318 16.8872H2.99263C3.53537 16.3629 4.01323 15.7754 4.41596 15.1372C4.97865 14.0823 5.30697 12.9183 5.37846 11.7247V8.83724C5.37539 8.16214 5.50552 7.49307 5.76139 6.86833C6.01726 6.24359 6.39385 5.67545 6.86959 5.19646C7.34533 4.71746 7.91089 4.33702 8.53387 4.0769C9.15685 3.81678 9.82503 3.6821 10.5001 3.68057C11.4882 3.68136 12.454 3.97355 13.2768 4.52057C13.1861 4.18748 13.1352 3.84481 13.1251 3.49974V3.13224C12.516 2.83262 11.8617 2.63553 11.1885 2.54891V1.81391C11.1885 1.60737 11.1064 1.40929 10.9604 1.26325C10.8143 1.1172 10.6163 1.03516 10.4097 1.03516C10.2032 1.03516 10.0051 1.1172 9.85905 1.26325C9.71301 1.40929 9.63096 1.60737 9.63096 1.81391V2.57807C8.12347 2.79073 6.7438 3.54159 5.74668 4.69203C4.74955 5.84248 4.20231 7.31482 4.20596 8.83724V11.7189C4.1329 12.6973 3.86517 13.6512 3.41846 14.5247C3.01648 15.1561 2.53191 15.7309 1.97763 16.2339C1.91541 16.2886 1.86554 16.3559 1.83134 16.4313C1.79714 16.5067 1.7794 16.5886 1.7793 16.6714V17.4647C1.7793 17.6194 1.84076 17.7678 1.95015 17.8772C2.05955 17.9866 2.20792 18.0481 2.36263 18.0481H18.5793C18.734 18.0481 18.8824 17.9866 18.9918 17.8772C19.1012 17.7678 19.1626 17.6194 19.1626 17.4647V16.6714C19.1625 16.5886 19.1448 16.5067 19.1106 16.4313C19.0764 16.3559 19.0265 16.2886 18.9643 16.2339Z" fill="white"/>
<path d="M17.5007 6.41683C19.1115 6.41683 20.4173 5.11099 20.4173 3.50016C20.4173 1.88933 19.1115 0.583496 17.5007 0.583496C15.8898 0.583496 14.584 1.88933 14.584 3.50016C14.584 5.11099 15.8898 6.41683 17.5007 6.41683Z" fill="#1DC690"/>
</g>
<defs>
<clipPath id="clip0_3063_9353">
<rect width="21" height="21" fill="white"/>
</clipPath>
</defs>
</svg>
