<svg width="48" height="96" viewBox="0 0 48 96" fill="none" xmlns="http://www.w3.org/2000/svg">
<path d="M16.4971 0C16.7221 0 16.9471 0 17.1721 0C17.3971 1.12556 19.3472 0.600298 20.5472 0.675335C20.8472 1.27563 20.9222 1.95097 21.3722 2.40119C21.8223 1.80089 22.1973 1.05052 22.4973 0.300149C22.4973 0.300149 24.4473 0.450223 25.4224 0.525261C27.3724 3.07653 28.7225 6.07802 32.5476 6.60328C33.8976 8.10402 35.5476 9.22958 37.7227 9.90492C38.1727 10.3551 38.1727 10.3551 38.1727 10.8804C37.1977 12.2311 35.1726 13.6568 35.4726 15.3076C36.6727 15.8329 42.6728 18.9844 43.7229 14.3321C43.8729 13.7318 44.7729 14.3321 45.2979 14.3321C45.6729 13.9569 45.4479 12.9814 45.5229 12.2311C45.5229 11.9309 46.573 11.7808 47.323 12.2311C47.998 12.5312 47.473 15.0074 47.323 16.208C45.3729 16.5832 44.3229 20.11 42.9729 19.8849C41.5478 19.6598 41.0228 20.11 38.6227 23.9369C37.9477 25.1375 38.2477 26.5632 37.4227 27.9889C36.5977 29.4896 37.9477 28.6642 37.1227 30.315C36.5977 31.2905 36.5977 31.2905 36.0727 32.266C34.7976 34.5171 38.2477 32.191 36.8227 34.5171C36.1477 35.6427 40.7228 35.8678 39.8228 37.1434C38.9227 38.4941 42.5228 39.2445 41.3228 40.6702C40.2728 41.8708 39.0727 43.0714 37.7977 44.272C34.7226 47.0484 27.0724 45.6226 27.0724 45.6226C25.8724 46.4481 28.3474 46.9733 27.3724 48.2489C26.3224 49.7497 28.7225 49.8998 27.2224 51.4005C26.4724 52.1509 21.1472 49.0744 19.7972 49.9748C17.6971 51.3255 19.4972 56.5781 19.4222 56.503C19.4972 57.0283 20.5472 58.6791 20.5472 58.6791C20.5472 58.6791 22.4223 58.379 22.3473 59.2794C22.1973 60.48 21.2972 61.2304 20.3222 61.3805C19.7972 61.5305 19.1972 61.6056 18.7472 61.8307C17.6971 62.506 18.1472 64.3069 18.2972 65.3574C18.2222 65.8827 16.9471 65.3574 16.9471 65.3574C16.9471 65.3574 15.6721 66.558 16.2721 67.4585C16.3471 67.8337 15.1471 67.4585 15.1471 67.4585C13.197 68.9592 18.2972 71.0603 17.8471 71.6606C18.0722 73.1613 12.972 77.4384 11.997 77.3634C11.097 77.4384 11.172 80.3649 10.1219 80.8901C9.67192 81.1153 10.2719 83.9667 8.54689 83.1413C7.04685 82.3909 5.69681 82.9162 5.09679 82.9162C3.82176 82.7661 3.59675 82.0907 2.99673 81.7906C2.47172 81.5655 3.22174 78.639 2.69672 77.9637C2.69672 77.6635 1.8717 76.6881 1.8717 76.3879C1.9467 76.3879 1.7967 76.3879 1.8717 76.3879C2.77173 74.9622 0.971676 77.4384 0.146652 75.4875C-0.678371 75.6375 2.24671 70.2349 2.24671 70.2349C2.47172 69.2594 4.49677 70.0848 5.17179 68.9592C5.09679 68.1338 3.74675 68.7341 3.82176 67.7586C3.74675 67.0833 4.12176 66.7831 4.04676 66.3329C4.42177 63.5565 1.42169 61.5305 3.52175 59.4295C2.09671 56.2779 3.59675 53.9518 3.52175 50.9503C3.82176 50.7252 4.34677 50.7252 4.64678 50.5001C4.19677 48.7742 3.67175 47.1234 3.74675 44.8723C5.3968 43.8217 5.02179 42.321 5.09679 40.4451C5.17179 39.2445 6.29683 38.344 6.44683 37.1434C6.82184 34.6672 4.87179 32.4161 4.42177 29.8648C4.72178 28.3641 5.02179 26.9384 5.99682 26.113C4.79678 22.8864 7.49686 20.3351 8.02187 17.4086C8.32188 17.1085 9.0719 17.2586 9.37191 16.9584C8.39688 14.7073 9.14691 12.006 8.9219 9.90492C10.3469 8.40417 12.972 7.27861 12.297 4.27712C13.872 3.07653 15.1471 1.50074 16.4971 0Z" fill="#E8E8E8"/>
<path d="M10.793 51.6241L18.1432 40.9688L27.2184 28.2125L30.8935 13.4302" stroke="#1C4670" stroke-width="0.5" stroke-miterlimit="10"/>
<path d="M10.7946 51.6245L7.64453 75.1862" stroke="#1C4670" stroke-width="0.5" stroke-miterlimit="10"/>
<path d="M31.266 13.4303L18.1406 5.62646" stroke="#1C4670" stroke-width="0.5" stroke-miterlimit="10"/>
<path d="M34.5709 42.9202L27.2207 28.2129" stroke="#1C4670" stroke-width="0.5" stroke-miterlimit="10"/>
<path d="M27.2159 28.2127L18.1406 5.62646" stroke="#1C4670" stroke-width="0.5" stroke-miterlimit="10"/>
<path d="M18.1406 40.9692L34.5661 42.9202" stroke="#1C4670" stroke-width="0.5" stroke-miterlimit="10"/>
<path d="M34.2747 13.806C34.0497 15.832 32.3996 17.2577 30.5246 17.1076C28.6495 16.8825 27.2995 15.0816 27.5245 13.0556C27.7495 11.0296 29.3996 9.60392 31.2746 9.75399C33.1497 9.9791 34.4997 11.78 34.2747 13.806Z" fill="#1C4670"/>
<path d="M36.2964 43.1464C36.2213 44.1969 35.3213 44.8723 34.4213 44.7972C33.4463 44.7222 32.7713 43.7467 32.9213 42.7712C32.9963 41.7207 33.8963 41.0454 34.7963 41.1204C35.6963 41.1955 36.3714 42.0959 36.2964 43.1464Z" fill="#1C4670"/>
<path d="M29.0985 28.4392C29.0235 29.5647 28.0485 30.3901 27.0735 30.2401C26.0234 30.09 25.2734 29.1145 25.4234 27.9889C25.4984 26.8634 26.4734 26.038 27.4485 26.188C28.4235 26.2631 29.1735 27.3136 29.0985 28.4392Z" fill="#1C4670"/>
<path d="M13.5745 51.9251C13.4245 53.576 12.0745 54.7766 10.5744 54.6265C9.07439 54.4764 7.94936 52.9757 8.09936 51.3248C8.24937 49.674 9.5994 48.4734 11.0994 48.6985C12.5995 48.7736 13.7245 50.2743 13.5745 51.9251Z" fill="#1C4670"/>
<path d="M12.0703 87.1926V95.0715H12.8953H15.7454L16.2704 95.8969L18.9705 95.5217L19.3455 94.6213L19.5705 93.9459L17.9205 94.096C17.9205 94.096 15.2204 91.1695 14.8454 90.9444C14.4704 90.7193 13.6454 89.2936 13.6454 89.2936L13.2703 87.8679L12.5203 86.8174L12.0703 87.1926Z" fill="#E8E8E8"/>
<path d="M13.6506 92.5956L7.65039 75.187" stroke="#1C4670" stroke-width="0.5" stroke-miterlimit="10"/>
<path d="M9.89707 75.4119C9.74707 76.7626 8.62204 77.738 7.422 77.588C6.22197 77.4379 5.32194 76.2373 5.39694 74.8866C5.54695 73.536 6.67198 72.5605 7.87201 72.7106C9.14705 72.8606 10.0471 74.0612 9.89707 75.4119Z" fill="#1C4670"/>
<path d="M15.2802 92.952C15.2341 93.5501 14.6802 93.9773 14.0802 93.9346C13.4802 93.8919 13.0648 93.3365 13.1109 92.7384C13.1571 92.1403 13.7109 91.7132 14.311 91.7559C14.911 91.7986 15.3725 92.3539 15.2802 92.952Z" fill="#1C4670"/>
<path d="M18.1459 40.9708L12.5957 19.0599L18.7459 6.00342" stroke="#1C4670" stroke-width="0.5" stroke-miterlimit="10"/>
<path d="M21.2244 5.92755C21.0743 7.35325 19.8743 8.40378 18.5243 8.2537C17.1742 8.10363 16.1992 6.82799 16.3492 5.32725C16.4992 3.90154 17.6993 2.85102 19.0493 3.00109C20.3993 3.15117 21.3744 4.50184 21.2244 5.92755Z" fill="#1C4670"/>
<path d="M20.249 41.1946C20.099 42.4702 19.0489 43.3706 17.9239 43.2206C16.7239 43.0705 15.8988 41.9449 16.0488 40.6693C16.1988 39.3937 17.2489 38.4932 18.3739 38.6433C19.4989 38.7934 20.399 39.9189 20.249 41.1946Z" fill="#1C4670"/>
<path d="M13.9509 18.7587C13.8759 19.8093 12.9759 20.4846 12.0759 20.4095C11.1759 20.3345 10.4258 19.359 10.5758 18.3835C10.6509 17.333 11.5509 16.6577 12.4509 16.7327C13.4259 16.8828 14.101 17.7832 13.9509 18.7587Z" fill="#1C4670"/>
</svg>
