<svg width="106" height="44" viewBox="0 0 106 44" fill="none" xmlns="http://www.w3.org/2000/svg">
<path d="M7.55157 0C7.65457 0 7.75757 0 7.86056 0C7.96356 0.515226 8.8562 0.274787 9.40552 0.309136C9.54285 0.583923 9.57718 0.893058 9.78317 1.09915C9.98917 0.824362 10.1608 0.480878 10.2982 0.137394C10.2982 0.137394 11.1908 0.20609 11.6371 0.240439C12.5298 1.40828 13.1477 2.78222 14.8987 3.02266C15.5167 3.70963 16.272 4.22485 17.2676 4.53399C17.4736 4.74008 17.4736 4.74008 17.4736 4.98052C17.0273 5.59879 16.1003 6.25141 16.2376 7.00707C16.787 7.24751 19.5336 8.69014 20.0142 6.56054C20.0829 6.28576 20.4949 6.56054 20.7352 6.56054C20.9068 6.3888 20.8038 5.94227 20.8382 5.59879C20.8382 5.4614 21.3188 5.3927 21.6622 5.59879C21.9711 5.73618 21.7308 6.86968 21.6622 7.41925C20.7695 7.591 20.2889 9.20537 19.6709 9.10233C19.0186 8.99928 18.7782 9.20537 17.6796 10.9571C17.3706 11.5067 17.5079 12.1593 17.1303 12.812C16.7526 13.4989 17.3706 13.1211 16.993 13.8768C16.7526 14.3233 16.7526 14.3233 16.5123 14.7698C15.9287 15.8003 17.5079 14.7355 16.8556 15.8003C16.5466 16.3155 18.6409 16.4185 18.2289 17.0025C17.8169 17.6207 19.4649 17.9642 18.9156 18.6168C18.4349 19.1664 17.8856 19.716 17.302 20.2656C15.8943 21.5364 12.3924 20.8838 12.3924 20.8838C11.8431 21.2617 12.9761 21.5021 12.5298 22.086C12.0491 22.773 13.1477 22.8417 12.4611 23.5287C12.1178 23.8721 9.68018 22.4639 9.0622 22.876C8.10089 23.4943 8.92487 25.8987 8.89053 25.8643C8.92487 26.1048 9.40552 26.8604 9.40552 26.8604C9.40552 26.8604 10.2638 26.7231 10.2295 27.1352C10.1608 27.6848 9.74884 28.0283 9.30252 28.097C9.0622 28.1657 8.78754 28.2 8.58154 28.3031C8.10089 28.6122 8.30688 29.4366 8.37555 29.9175C8.34122 30.1579 7.75757 29.9175 7.75757 29.9175C7.75757 29.9175 7.17392 30.467 7.44858 30.8792C7.48291 31.051 6.93359 30.8792 6.93359 30.8792C6.04095 31.5662 8.37555 32.5279 8.16956 32.8027C8.27255 33.4897 5.93796 35.4475 5.49164 35.4132C5.07965 35.4475 5.11398 36.7871 4.63333 37.0276C4.42733 37.1306 4.70199 38.4359 3.91235 38.058C3.2257 37.7145 2.60772 37.955 2.33306 37.955C1.74941 37.8863 1.64642 37.5771 1.37176 37.4398C1.13143 37.3367 1.47476 35.9971 1.23443 35.688C1.23443 35.5506 0.856773 35.1041 0.856773 34.9667C0.891106 34.9667 0.822441 34.9667 0.856773 34.9667C1.26876 34.314 0.444786 35.4475 0.0671303 34.5545C-0.310525 34.6232 1.02843 32.1501 1.02843 32.1501C1.13143 31.7036 2.0584 32.0814 2.3674 31.5662C2.33306 31.1883 1.71508 31.4631 1.74941 31.0166C1.71508 30.7075 1.88674 30.5701 1.85241 30.364C2.02407 29.0931 0.65078 28.1657 1.61208 27.2039C0.95977 25.7613 1.64642 24.6965 1.61208 23.3226C1.74941 23.2195 1.98974 23.2195 2.12707 23.1165C1.92108 22.3265 1.68075 21.5708 1.71508 20.5403C2.47039 20.0595 2.29873 19.3725 2.33306 18.5138C2.3674 17.9642 2.88238 17.552 2.95104 17.0025C3.12271 15.869 2.23007 14.8385 2.02407 13.6707C2.1614 12.9837 2.29873 12.3311 2.74505 11.9532C2.19573 10.4763 3.4317 9.30842 3.67202 7.96883C3.80935 7.83144 4.15268 7.90013 4.29 7.76274C3.84368 6.73229 4.18701 5.49574 4.08401 4.53399C4.73632 3.84702 5.93796 3.33179 5.62896 1.95786C6.34994 1.40828 6.93359 0.686968 7.55157 0Z" fill="#E8E8E8"/>
<path d="M4.94141 23.6313L8.30597 18.7538L12.4602 12.9146L14.1425 6.14795" stroke="#1C4670" stroke-width="0.5" stroke-miterlimit="10"/>
<path d="M4.94196 23.6313L3.5 34.4167" stroke="#1C4670" stroke-width="0.5" stroke-miterlimit="10"/>
<path d="M14.3128 6.14792L8.30469 2.57568" stroke="#1C4670" stroke-width="0.5" stroke-miterlimit="10"/>
<path d="M15.8255 19.6468L12.4609 12.9146" stroke="#1C4670" stroke-width="0.5" stroke-miterlimit="10"/>
<path d="M12.4589 12.9146L8.30469 2.57568" stroke="#1C4670" stroke-width="0.5" stroke-miterlimit="10"/>
<path d="M8.30469 18.7539L15.8235 19.647" stroke="#1C4670" stroke-width="0.5" stroke-miterlimit="10"/>
<path d="M15.689 6.31973C15.586 7.24714 14.8307 7.89976 13.9724 7.83106C13.1141 7.72801 12.4961 6.90365 12.5991 5.97625C12.7021 5.04884 13.4574 4.39622 14.3157 4.46492C15.174 4.56796 15.792 5.39232 15.689 6.31973Z" fill="#1C4670"/>
<path d="M16.6151 19.7503C16.5807 20.2312 16.1687 20.5403 15.7567 20.506C15.3104 20.4716 15.0014 20.0251 15.0701 19.5786C15.1044 19.0977 15.5164 18.7886 15.9284 18.8229C16.3404 18.8573 16.6494 19.2694 16.6151 19.7503Z" fill="#1C4670"/>
<path d="M13.3199 13.018C13.2856 13.5332 12.8393 13.9111 12.393 13.8424C11.9123 13.7737 11.569 13.3272 11.6377 12.8119C11.672 12.2967 12.1183 11.9189 12.5646 11.9876C13.0109 12.0219 13.3543 12.5028 13.3199 13.018Z" fill="#1C4670"/>
<path d="M6.21358 23.7687C6.14491 24.5244 5.52693 25.0739 4.84028 25.0053C4.15364 24.9366 3.63865 24.2496 3.70732 23.4939C3.77598 22.7383 4.39396 22.1887 5.08061 22.2917C5.76726 22.3261 6.28224 23.013 6.21358 23.7687Z" fill="#1C4670"/>
<path d="M5.52539 39.9125V43.519H5.90305H7.20767L7.448 43.8969L8.68396 43.7251L8.85562 43.313L8.95862 43.0038L8.20331 43.0725C8.20331 43.0725 6.96735 41.7329 6.79569 41.6299C6.62402 41.5268 6.24637 40.8742 6.24637 40.8742L6.07471 40.2216L5.73138 39.7407L5.52539 39.9125Z" fill="#E8E8E8"/>
<path d="M6.24854 42.3858L3.50195 34.417" stroke="#1C4670" stroke-width="0.5" stroke-miterlimit="10"/>
<path d="M4.53069 34.5199C4.46202 35.1382 3.94704 35.5847 3.39772 35.516C2.8484 35.4473 2.43642 34.8977 2.47075 34.2794C2.53941 33.6612 3.0544 33.2146 3.60372 33.2833C4.18736 33.352 4.59935 33.9016 4.53069 34.5199Z" fill="#1C4670"/>
<path d="M6.9946 42.5489C6.97347 42.8227 6.71994 43.0182 6.44528 42.9987C6.17062 42.9791 5.98047 42.7249 6.0016 42.4511C6.02273 42.1773 6.27626 41.9818 6.55092 42.0013C6.82558 42.0209 7.03686 42.2751 6.9946 42.5489Z" fill="#1C4670"/>
<path d="M8.30622 18.7544L5.76562 8.72467L8.58088 2.74805" stroke="#1C4670" stroke-width="0.5" stroke-miterlimit="10"/>
<path d="M9.71513 2.71331C9.64647 3.36593 9.09715 3.84681 8.47917 3.77811C7.86119 3.70941 7.41487 3.12549 7.48353 2.43852C7.5522 1.7859 8.10152 1.30503 8.7195 1.37372C9.33748 1.44242 9.7838 2.06069 9.71513 2.71331Z" fill="#1C4670"/>
<path d="M9.26855 18.857C9.19989 19.4409 8.71924 19.8531 8.20425 19.7844C7.65493 19.7157 7.27728 19.2004 7.34594 18.6165C7.41461 18.0326 7.89526 17.6204 8.41024 17.6891C8.92523 17.7578 9.33722 18.273 9.26855 18.857Z" fill="#1C4670"/>
<path d="M6.38578 8.58674C6.35145 9.06762 5.93946 9.37676 5.52747 9.34241C5.11548 9.30806 4.77216 8.86153 4.84082 8.415C4.87516 7.93412 5.28714 7.62499 5.69913 7.65934C6.14545 7.72803 6.45444 8.14021 6.38578 8.58674Z" fill="#1C4670"/>
<path d="M31.68 10.144H40.344V12.208H31.68V10.144ZM31.92 19H29.52V2.2H41.376V4.288H31.92V19ZM49.4679 19.144C48.1879 19.144 47.0519 18.864 46.0599 18.304C45.0679 17.744 44.2839 16.976 43.7079 16C43.1319 15.008 42.8439 13.888 42.8439 12.64C42.8439 11.376 43.1319 10.256 43.7079 9.28C44.2839 8.304 45.0679 7.544 46.0599 7C47.0519 6.44 48.1879 6.16 49.4679 6.16C50.7319 6.16 51.8599 6.44 52.8519 7C53.8599 7.544 54.6439 8.304 55.2039 9.28C55.7799 10.24 56.0679 11.36 56.0679 12.64C56.0679 13.904 55.7799 15.024 55.2039 16C54.6439 16.976 53.8599 17.744 52.8519 18.304C51.8599 18.864 50.7319 19.144 49.4679 19.144ZM49.4679 17.128C50.2839 17.128 51.0119 16.944 51.6519 16.576C52.3079 16.208 52.8199 15.688 53.1879 15.016C53.5559 14.328 53.7399 13.536 53.7399 12.64C53.7399 11.728 53.5559 10.944 53.1879 10.288C52.8199 9.616 52.3079 9.096 51.6519 8.728C51.0119 8.36 50.2839 8.176 49.4679 8.176C48.6519 8.176 47.9239 8.36 47.2839 8.728C46.6439 9.096 46.1319 9.616 45.7479 10.288C45.3639 10.944 45.1719 11.728 45.1719 12.64C45.1719 13.536 45.3639 14.328 45.7479 15.016C46.1319 15.688 46.6439 16.208 47.2839 16.576C47.9239 16.944 48.6519 17.128 49.4679 17.128ZM59.2543 19V6.28H61.4623V9.736L61.2463 8.872C61.5983 7.992 62.1903 7.32 63.0223 6.856C63.8543 6.392 64.8783 6.16 66.0943 6.16V8.392C65.9983 8.376 65.9023 8.368 65.8063 8.368C65.7263 8.368 65.6463 8.368 65.5663 8.368C64.3343 8.368 63.3583 8.736 62.6383 9.472C61.9183 10.208 61.5583 11.272 61.5583 12.664V19H59.2543ZM74.2648 19.144C72.9848 19.144 71.8488 18.864 70.8568 18.304C69.8648 17.744 69.0808 16.976 68.5048 16C67.9288 15.008 67.6408 13.888 67.6408 12.64C67.6408 11.376 67.9288 10.256 68.5048 9.28C69.0808 8.304 69.8648 7.544 70.8568 7C71.8488 6.44 72.9848 6.16 74.2648 6.16C75.5288 6.16 76.6568 6.44 77.6488 7C78.6568 7.544 79.4408 8.304 80.0008 9.28C80.5768 10.24 80.8648 11.36 80.8648 12.64C80.8648 13.904 80.5768 15.024 80.0008 16C79.4408 16.976 78.6568 17.744 77.6488 18.304C76.6568 18.864 75.5288 19.144 74.2648 19.144ZM74.2648 17.128C75.0808 17.128 75.8088 16.944 76.4488 16.576C77.1048 16.208 77.6168 15.688 77.9848 15.016C78.3528 14.328 78.5368 13.536 78.5368 12.64C78.5368 11.728 78.3528 10.944 77.9848 10.288C77.6168 9.616 77.1048 9.096 76.4488 8.728C75.8088 8.36 75.0808 8.176 74.2648 8.176C73.4488 8.176 72.7208 8.36 72.0808 8.728C71.4408 9.096 70.9288 9.616 70.5448 10.288C70.1608 10.944 69.9688 11.728 69.9688 12.64C69.9688 13.536 70.1608 14.328 70.5448 15.016C70.9288 15.688 71.4408 16.208 72.0808 16.576C72.7208 16.944 73.4488 17.128 74.2648 17.128ZM28.992 39V22.2H36.264C37.768 22.2 39.064 22.448 40.152 22.944C41.24 23.424 42.08 24.12 42.672 25.032C43.264 25.944 43.56 27.032 43.56 28.296C43.56 29.544 43.264 30.624 42.672 31.536C42.08 32.432 41.24 33.12 40.152 33.6C39.064 34.08 37.768 34.32 36.264 34.32H31.152L32.88 32.616V39H28.992ZM39.672 39L35.472 32.904H39.624L43.872 39H39.672ZM32.88 33.048L31.152 31.224H36.048C37.248 31.224 38.144 30.968 38.736 30.456C39.328 29.928 39.624 29.208 39.624 28.296C39.624 27.368 39.328 26.648 38.736 26.136C38.144 25.624 37.248 25.368 36.048 25.368H31.152L32.88 23.52V33.048ZM52.7844 39.192C51.3124 39.192 50.0164 38.904 48.8964 38.328C47.7924 37.752 46.9364 36.968 46.3284 35.976C45.7204 34.968 45.4164 33.824 45.4164 32.544C45.4164 31.248 45.7124 30.104 46.3044 29.112C46.9124 28.104 47.7364 27.32 48.7764 26.76C49.8164 26.184 50.9924 25.896 52.3044 25.896C53.5684 25.896 54.7044 26.168 55.7124 26.712C56.7364 27.24 57.5444 28.008 58.1364 29.016C58.7284 30.008 59.0244 31.2 59.0244 32.592C59.0244 32.736 59.0164 32.904 59.0004 33.096C58.9844 33.272 58.9684 33.44 58.9524 33.6H48.4644V31.416H56.9844L55.5444 32.064C55.5444 31.392 55.4084 30.808 55.1364 30.312C54.8644 29.816 54.4884 29.432 54.0084 29.16C53.5284 28.872 52.9684 28.728 52.3284 28.728C51.6884 28.728 51.1204 28.872 50.6244 29.16C50.1444 29.432 49.7684 29.824 49.4964 30.336C49.2244 30.832 49.0884 31.424 49.0884 32.112V32.688C49.0884 33.392 49.2404 34.016 49.5444 34.56C49.8644 35.088 50.3044 35.496 50.8644 35.784C51.4404 36.056 52.1124 36.192 52.8804 36.192C53.5684 36.192 54.1684 36.088 54.6804 35.88C55.2084 35.672 55.6884 35.36 56.1204 34.944L58.1124 37.104C57.5204 37.776 56.7764 38.296 55.8804 38.664C54.9844 39.016 53.9524 39.192 52.7844 39.192ZM69.3651 25.896C70.3891 25.896 71.3011 26.104 72.1011 26.52C72.9171 26.92 73.5571 27.544 74.0211 28.392C74.4851 29.224 74.7171 30.296 74.7171 31.608V39H70.9731V32.184C70.9731 31.144 70.7411 30.376 70.2771 29.88C69.8291 29.384 69.1891 29.136 68.3571 29.136C67.7651 29.136 67.2291 29.264 66.7491 29.52C66.2851 29.76 65.9171 30.136 65.6451 30.648C65.3891 31.16 65.2611 31.816 65.2611 32.616V39H61.5171V26.088H65.0931V29.664L64.4211 28.584C64.8851 27.72 65.5491 27.056 66.4131 26.592C67.2771 26.128 68.2611 25.896 69.3651 25.896ZM86.0308 39V36.48L85.7908 35.928V31.416C85.7908 30.616 85.5428 29.992 85.0468 29.544C84.5668 29.096 83.8228 28.872 82.8148 28.872C82.1268 28.872 81.4468 28.984 80.7748 29.208C80.1188 29.416 79.5588 29.704 79.0948 30.072L77.7508 27.456C78.4548 26.96 79.3028 26.576 80.2948 26.304C81.2868 26.032 82.2948 25.896 83.3188 25.896C85.2868 25.896 86.8148 26.36 87.9028 27.288C88.9908 28.216 89.5348 29.664 89.5348 31.632V39H86.0308ZM82.0948 39.192C81.0868 39.192 80.2228 39.024 79.5028 38.688C78.7828 38.336 78.2308 37.864 77.8468 37.272C77.4628 36.68 77.2708 36.016 77.2708 35.28C77.2708 34.512 77.4548 33.84 77.8228 33.264C78.2068 32.688 78.8068 32.24 79.6228 31.92C80.4388 31.584 81.5028 31.416 82.8148 31.416H86.2468V33.6H83.2228C82.3428 33.6 81.7348 33.744 81.3988 34.032C81.0788 34.32 80.9188 34.68 80.9188 35.112C80.9188 35.592 81.1028 35.976 81.4708 36.264C81.8548 36.536 82.3748 36.672 83.0308 36.672C83.6548 36.672 84.2148 36.528 84.7108 36.24C85.2068 35.936 85.5668 35.496 85.7908 34.92L86.3668 36.648C86.0948 37.48 85.5988 38.112 84.8788 38.544C84.1588 38.976 83.2308 39.192 82.0948 39.192ZM99.2571 39.192C97.8651 39.192 96.6251 38.912 95.5371 38.352C94.4491 37.776 93.5931 36.984 92.9691 35.976C92.3611 34.968 92.0571 33.824 92.0571 32.544C92.0571 31.248 92.3611 30.104 92.9691 29.112C93.5931 28.104 94.4491 27.32 95.5371 26.76C96.6251 26.184 97.8651 25.896 99.2571 25.896C100.617 25.896 101.801 26.184 102.809 26.76C103.817 27.32 104.561 28.128 105.041 29.184L102.137 30.744C101.801 30.136 101.377 29.688 100.865 29.4C100.369 29.112 99.8251 28.968 99.2331 28.968C98.5931 28.968 98.0171 29.112 97.5051 29.4C96.9931 29.688 96.5851 30.096 96.2811 30.624C95.9931 31.152 95.8491 31.792 95.8491 32.544C95.8491 33.296 95.9931 33.936 96.2811 34.464C96.5851 34.992 96.9931 35.4 97.5051 35.688C98.0171 35.976 98.5931 36.12 99.2331 36.12C99.8251 36.12 100.369 35.984 100.865 35.712C101.377 35.424 101.801 34.968 102.137 34.344L105.041 35.928C104.561 36.968 103.817 37.776 102.809 38.352C101.801 38.912 100.617 39.192 99.2571 39.192Z" fill="#E8E8E8"/>
</svg>
